<svg xmlns="http://www.w3.org/2000/svg" viewBox="53 50 84 70"><path d="M64.268 109.143l1.149.166c.657.164.657.492.657.82v1.479H60.49v-1.479c0-.328 0-.656.657-.82l1.15-.166v-1.148H55.07v1.148l1.15.166c.493.164.657.492.657.82v4.764c0 .328-.164.656-.657.82l-1.15.164v1.15h7.227v-1.15l-1.15-.164c-.657-.164-.657-.492-.657-.82v-1.479h5.584v1.479c0 .328 0 .656-.657.82l-1.149.164v1.15h7.227v-1.15l-1.149-.164c-.493-.164-.657-.492-.657-.82v-4.764c0-.328.165-.656.657-.82l1.149-.166v-1.148h-7.227v1.148zM112.885 107.994h-9.033v1.148l.984.166c.494 0 .658.164.658.82v4.764c0 .328 0 .656-.658.82l-1.148.164v1.15h9.197c3.121 0 5.912-1.314 5.912-4.436 0-3.281-2.791-4.596-5.912-4.596zm-.821 7.391h-2.957v-5.748h2.957c1.807 0 2.463.984 2.463 2.955 0 1.808-.656 2.793-2.463 2.793z" fill="#000"/><path d="M134.072 115.713c-.656-.164-.82-.492-.984-.656l-4.107-6.406c-.328-.492-.656-.656-.984-.656h-6.898v1.148l1.643.33c.164 0 .492.328.164.656l-2.957 5.092c-.164.164-.328.492-.656.492l-1.314.164v1.15h5.912v-1.15l-.984-.164c-.494 0-.658-.328-.494-.656l.494-.822h5.584l.328.658c.328.492 0 .82-.492.82l-.986.164v1.15h7.885v-1.15l-1.154-.164zm-10.183-3.121l1.643-2.791 1.807 2.791h-3.45zM97.281 109.143l1.314.166c.492.164.492.492.492.82v4.6l-4.763-6.406c-.164-.328-.328-.328-.985-.328h-6.241v1.148l1.314.166c.493.164.493.492.493.82v4.764c0 .328 0 .656-.493.82l-1.314.164v1.15h5.913v-1.15l-1.314-.164c-.493-.164-.493-.492-.493-.82v-4.6l4.763 6.406c.165.328.329.328.985.328h4.434v-6.898c0-.328 0-.656.494-.82l1.312-.166v-1.148H97.28v1.148h.001zM79.378 107.666c-5.913 0-7.555 2.627-7.555 4.926 0 2.137 1.642 4.764 7.555 4.764s7.392-2.627 7.392-4.764c0-2.299-1.478-4.926-7.392-4.926zm0 8.047c-2.299 0-3.285-.984-3.285-3.121 0-2.299.985-3.119 3.285-3.119 2.3 0 3.285.82 3.285 3.119.001 2.137-.985 3.121-3.285 3.121zM76.094 106.352l-4.27-4.106 22.009-2.629 10.839 6.735H76.094zM113.377 88.941l-46.481 8.705 3.942 3.777 21.516-2.791c-.329-.166-.329-.33-.329-.494 0-.328.165-.656.493-.656.165 0 11.826-1.807 12.648-1.807.492-.164 1.312-.329 2.463-.821.986-.492 1.643-.985 1.971-1.313.328-.329 1.314-1.15 1.807-1.971.492-.329.822-.821.986-.986.328-.328.984-1.149 1.148-1.478.164-.001 0-.165-.164-.165zM120.768 78.758L62.625 93.705l3.449 3.286 17.903-3.45c-.329-.165-.493-.329-.493-.657 0-.165.164-.493.493-.657l29.071-5.584c.492-.165 1.479-.329 2.465-.986.984-.493 1.477-1.15 1.805-1.478.33-.493.986-1.314 1.479-1.971.33-.493.658-.986.986-1.314.328-.492.82-1.478 1.15-1.971.001-.165.001-.329-.165-.165z" fill="#000"/><path d="M113.049 61.841c.822-.329 4.6-2.136 5.584-2.464.822-.329 3.285-1.479 4.271-1.971 1.148-.493 4.105-1.971 4.598-2.135a207.68 207.68 0 0 0 5.42-2.628c.166 0 .33.164.33.329-.33.985-.986 2.463-1.643 4.271-.494.821-.986 2.135-1.479 2.956-.658 1.15-1.314 1.807-1.807 2.299-1.15.986-1.971 1.479-2.957 1.807-.492.164-1.807.657-2.627.985-.164.165-3.449 1.314-4.107 1.478l-57.32 20.366c-1.314.493-2.957 1.314-2.957 3.121 0 .657.493 1.643 1.314 2.463l14.618 13.633h-6.734c-.165-.492-.329-.986-.657-1.479-.164-.328-.329-.656-1.149-1.479-.493-.492-1.15-1.148-1.314-1.314l-7.719-7.718c-1.314-1.314-2.135-3.121-2.135-4.764 0-2.299 1.314-4.599 5.092-6.077l53.378-21.679z" fill="#000"/><path d="M119.291 69.56c.82-.328 2.299-.821 2.627-.985.492-.165 1.971-.657 2.135-.821 1.15-.329 2.137-.657 3.121-1.15.164-.164.328 0 .328.164-.164.329-.82 1.807-.984 2.136-.494.821-.822 1.642-1.314 2.463-.492.493-1.15 1.478-1.479 1.971-.656.821-1.148 1.313-2.135 1.971s-2.135.985-2.629 1.149L76.75 87.792c-.328.164-.492.493-.492.657s.164.493.492.493l-14.946 3.942-1.313-1.15c-.493-.329-.657-.985-.657-1.314 0-1.149.821-1.643 2.135-2.135l57.322-18.725z" fill="#000"/></svg>
